<?xml version="1.0" encoding="UTF-8"?><svg id="Layer_1" xmlns="http://www.w3.org/2000/svg" viewBox="0 0 781.71 679.01"><defs><style>.cls-1{fill:#f5e64c;}.cls-2{fill:#fff;}.cls-3{fill:#e22143;}.cls-4{fill:#3e75f6;}</style></defs><polygon class="cls-3" points="662.44 281.25 662.44 129.31 600.56 281.25 662.44 281.25"/><g><path class="cls-3" d="M730.41,531.14h-54.28v-78.82c2.76-.71,5.06-2.52,6.41-4.96,.11-.21,.21-.42,.31-.63l47.56,84.41Z"/><path class="cls-3" d="M671.09,452.32v78.82h-37.21l-48.51-86.13h78.4c.92,3.59,3.73,6.39,7.32,7.31Z"/><path class="cls-3" d="M710.24,333.25h-96.49l-32.93,76.25-.21-76.25h-1.24l-86.27,211.84h87.25v-108.93l2.17,3.8h81.25c1.13-4.4,5.08-7.67,9.84-7.67,.41,0,.79,.07,1.19,.12l-10.69-19,46.12-80.16Z"/></g><path class="cls-4" d="M27.8,100.7c-4.11,13.56-6.37,28.04-6.37,43.38,0,60.51,33.87,108.75,85.73,130.63,15.56,6.59,32.74,10.75,51.16,12.21h.06c.17,0,.33,.04,.49,.05L35.46,81.07c-3.01,6.29-5.59,12.83-7.67,19.63Z"/><path class="cls-4" d="M294.92,56.78c-2.08-2.7-4.23-5.35-6.51-7.89C261.18,18.37,220.07,0,171.99,0c-9.73,0-19.07,.81-28.2,2.27v-.05c-.16,.05-.38,.11-.54,.16-.32,.05-.59,.05-.92,.11v.05c-2.29,.46-4.54,.99-6.78,1.53l106.56,182.39,52.81-129.68Z"/><path class="cls-4" d="M443.85,341.63l-32.24,73.2c-.73-.55-1.48-1.07-2.27-1.55-.16-.1-.31-.2-.46-.29-4.8-2.97-10.46-4.69-16.52-4.69-6.5,0-12.53,1.97-17.54,5.35l-40.08-68.61c1.45-.79,2.91-1.56,4.41-2.28h.05l.16,.21c-.05-.16-.1-.21-.1-.21h.05c4.86-2.33,9.94-4.33,15.23-6,12.16-3.94,25.39-6.1,39.44-6.21h.77c24.1,0,40.97,6.85,49.1,11.08Z"/><polygon class="cls-4" points="487.98 333.25 487.98 438.98 487.98 444.03 487.98 478.5 487.98 545.09 493.11 545.09 579.38 333.25 487.98 333.25"/><polygon class="cls-4" points="533.1 7.73 533.1 118.9 495.99 118.9 495.99 7.74 480.13 7.74 368.74 281.25 424.57 281.25 447.03 281.25 495.99 170.11 495.99 170.08 533.1 170.08 533.1 281.25 593.07 281.25 594.36 281.25 600.56 281.25 662.44 129.31 662.44 122.53 662.44 114.08 662.44 7.74 533.1 7.73"/><path class="cls-1" d="M278.37,248.53l1.89-1.43c2.75-2.65,5.4-5.35,7.94-8.16,13.02-14.48,22.8-31.71,28.74-50.89v-.11c4.26-13.83,6.54-28.63,6.54-44.35,0-21.93-4.48-42.41-12.8-60.51-.65-1.51-1.3-2.86-2-4.27-2.98-6.05-6.43-11.77-10.23-17.21-1.14-1.63-2.31-3.25-3.52-4.83l-52.81,129.68,3.23,5.53"/><polygon class="cls-1" points="424.57 7.74 419.71 7.74 368.21 7.74 368.21 134.19 368.21 281.25 368.74 281.25 480.13 7.74 424.57 7.74"/><path class="cls-3" d="M458.35,534.85c-9.07,6.7-15.21,8.28-18.5,9.47-13.18,4.81-27.77,7.46-43.28,7.56h-3.45c-1.05,0-2.11-.03-3.15-.07-48.79-1.59-87.62-28.03-103.78-67.86-4.8-11.84-7.58-24.86-8.04-38.76-.03-.5-.04-1-.05-1.51v-3.54h-.03c.31-38.12,18.26-69.79,46.93-89.17,.93-.63,1.85-1.29,2.8-1.89,2.25-1.44,4.58-2.77,6.94-4.04l40.09,68.6h-.01c-8.19,5.52-13.64,14.78-13.88,25.34-.01,.24-.01,.49-.01,.74,0,1.46,.1,2.9,.29,4.31,2.1,15.32,15.24,27.12,31.14,27.12,1.73,0,3.42-.14,5.07-.41h.06s.01-.01,.02-.01c.06-.04,.15-.04,.2-.04,.81-.17,1.68-.33,2.48-.54,.09-.03,.18-.05,.27-.06h.03c.09-.02,.17-.03,.24-.05,.06-.03,.13-.05,.18-.07,.13-.04,.26-.07,.39-.11,.06-.01,.12-.02,.19-.04,.08,0,.14-.03,.21-.08,.01-.01,.02-.01,.02-.01,.01,0,.02-.01,.04-.02,.09-.02,.18-.05,.27-.08,.94-.26,1.87-.6,2.76-1,.36-.16,.7-.32,1.05-.52,.11-.05,.23-.11,.35-.18,.27-.13,.55-.27,.83-.41,0,0,.02,0,.03-.02,.27-.12,.55-.25,.81-.38,.11-.11,.28-.16,.38-.22,.17-.1,.33-.21,.49-.32,.05,0,.16-.11,.32-.22,.08-.06,.16-.11,.25-.16,3.56-2.26,5.35-4.28,5.35-4.28l43.7,72.93Z"/><path class="cls-3" d="M303.87,292.19l-58.53-100.19-3.23-5.53L135.55,4.07C93.6,14.2,60.35,37.92,40.76,71.2c-.38,.65-.81,1.24-1.19,1.89-1.46,2.6-2.82,5.27-4.11,7.98l123.41,205.9c.49,.04,13.94,23.55,13.94,23.55V177.14c-4.71-.38-9.12-1.8-13.01-4.03-6.76-3.87-11.95-10.17-14.34-17.73-.94-2.98-1.46-6.15-1.46-9.45,0-15.02,10.54-27.51,24.6-30.59,.14-.03,.28-.08,.42-.11,2.04-.42,4.15-.64,6.31-.64,17.29,0,31.34,13.99,31.34,31.33,0,16.44-12.71,29.92-28.81,31.21v133.39l118.56-.05,18.16,.05-10.72-18.34Z"/><path class="cls-2" d="M361.19,438.98l.03,.4c0-.14,.02-.27,.02-.4h-.05Z"/><path class="cls-2" d="M361.47,444.03h.03c-.01-.07-.03-.13-.04-.2v.2Z"/><polygon class="cls-2" points="213.68 444.32 211.72 440.14 211.62 440.14 213.68 444.32"/><path class="cls-2" d="M278.07,440.14c0,.33-.03,.66-.03,.99,0,.86,.04,1.7,.06,2.55v-3.54h-.03Z"/><path class="cls-2" d="M214.14,445.19h0l-2.38-5.05h66.34v3.54c.01,.51,.02,1.01,.05,1.51h-64.01Z"/><polygon class="cls-1" points="261.12 545.09 165.42 545.09 133.34 466.99 131.13 461.6 174.37 360.8 211.76 440.14 214.14 445.18 214.14 445.19 228.82 476.47 261.12 545.09"/><path class="cls-2" d="M177.86,177.14h0c-.83,.06-1.67,.12-2.52,.12s-1.69-.06-2.53-.13h0c.84,.08,1.68,.14,2.53,.14s1.69-.06,2.52-.13Z"/><polygon class="cls-4" points="174.37 360.8 131.13 461.6 95.31 545.09 0 545.09 99.11 333.25 161.45 333.25 174.37 360.8"/><path class="cls-2" d="M487.98,438.98v5.05h-86.14c-.97,2.74-3.05,4.94-5.74,6.03-.34,.14-.71,.24-1.07,.34v20.6c-.79,.08-1.58,.12-2.4,.12h-.11c-.87,0-1.71-.03-2.54-.11v-20.47c-3.4-.79-6.12-3.27-7.27-6.51h-21.49c-.19-1.41-.29-2.85-.29-4.31,0-.25,0-.5,.01-.74h21.31c.42-2.54,1.77-4.74,3.7-6.28,1.75-1.39,3.93-2.26,6.33-2.26,5.06,0,9.23,3.7,10.02,8.54h85.68Z"/><path class="cls-2" d="M175.34,135.74c-5.63,0-10.19,4.56-10.19,10.19,0,4.75,3.27,8.71,7.67,9.84v21.38h0v180.33l1.56,3.33,1.19,2.53,2.3,4.88V155.77c4.4-1.13,7.67-5.08,7.67-9.84,0-5.63-4.56-10.19-10.19-10.19Z"/><path class="cls-2" d="M682.86,446.72c.25-.55,.44-1.12,.6-1.72h98.25v-5.05h-98.25c-1.04-4.02-4.45-7.05-8.66-7.54-.39-.05-.78-.12-1.18-.12-4.76,0-8.72,3.26-9.84,7.66h-83.42v5.05h83.42c.92,3.59,3.72,6.39,7.31,7.31v94.89h-62.47v63.52h-195.04c-1.14-9.62-8.82-17.2-18.56-18.32v-40.52h-1.9c-1.05,0-2.11-.03-3.15-.07v40.61c-9.66,1.18-17.25,8.74-18.39,18.3h-44.92v5.05h44.94c1.19,9.28,8.48,16.65,17.81,18.04h.03c1.03,.16,2.09,.24,3.16,.24,.82,0,1.63-.05,2.42-.15,.3-.04,.6-.08,.9-.12,.6-.1,1.18-.22,1.76-.36,.15-.03,.3-.07,.44-.12,.23-.05,.46-.12,.68-.19,.33-.1,.65-.21,.97-.32,7.34-2.61,12.78-9.12,13.79-17.02h195.06v63.24h131.81v-131.81h-64.29v-94.89c2.99-.76,5.44-2.83,6.72-5.59Zm-292.89,182.33c-6.9-1.11-12.34-6.46-13.48-13.28h13.48v13.28Zm0-18.33h-13.5c1.07-6.9,6.53-12.35,13.5-13.47v13.47Zm5.05,18.35v-13.3h13.65c-1.15,6.87-6.66,12.25-13.65,13.3Zm0-18.35v-13.48c7.05,1.05,12.59,6.52,13.66,13.48h-13.66Zm340.41-58.52v121.81h-121.81v-121.81h121.81Z"/><g><path class="cls-2" d="M645.11,608.48c-.15-.15-.22-.35-.22-.61v-2.87c0-.41,.13-.75,.39-1.05,2.03-2.28,4.14-4.75,6.35-7.4,2.21-2.65,3.63-4.35,4.25-5.08,.07-.07,.64-.75,1.71-2.04,3.42-4.09,5.14-7.25,5.14-9.5,0-1.73-.58-3.12-1.74-4.17-1.16-1.05-2.7-1.57-4.61-1.57s-3.44,.53-4.58,1.6c-1.14,1.07-1.7,2.47-1.66,4.2v1.38c0,.26-.07,.46-.22,.61s-.35,.22-.61,.22h-3.7c-.26,0-.46-.07-.61-.22-.15-.15-.22-.35-.22-.61v-2.1c.07-1.92,.62-3.61,1.63-5.08,1.01-1.47,2.38-2.61,4.12-3.4s3.68-1.19,5.86-1.19c2.36,0,4.42,.44,6.19,1.33s3.13,2.1,4.09,3.65c.96,1.55,1.44,3.3,1.44,5.25,0,3.06-1.66,6.67-4.97,10.83-2.1,2.69-5.78,7.07-11.05,13.15-.07,.07-.09,.15-.05,.22,.04,.07,.11,.11,.22,.11h16.08c.26,0,.46,.07,.61,.22,.15,.15,.22,.35,.22,.61v2.93c0,.26-.07,.46-.22,.61-.15,.15-.35,.22-.61,.22h-22.6c-.26,0-.46-.07-.61-.22Z"/><path class="cls-2" d="M683.14,606.08c-2.19-2.12-3.29-4.96-3.29-8.54v-16.35c0-3.57,1.09-6.41,3.29-8.51,2.19-2.1,5.15-3.15,8.87-3.15s6.69,1.05,8.92,3.15c2.23,2.1,3.34,4.94,3.34,8.51v16.35c0,3.57-1.12,6.42-3.34,8.54-2.23,2.12-5.2,3.18-8.92,3.18s-6.68-1.06-8.87-3.18Zm13.95-3.26c1.25-1.23,1.88-2.88,1.88-4.94v-16.91c0-2.06-.63-3.71-1.88-4.95-1.25-1.23-2.95-1.85-5.08-1.85s-3.72,.62-4.97,1.85c-1.25,1.23-1.88,2.88-1.88,4.95v16.91c0,2.06,.63,3.71,1.88,4.94,1.25,1.23,2.91,1.85,4.97,1.85s3.83-.62,5.08-1.85Z"/><path class="cls-2" d="M645.11,657.37c-.15-.15-.22-.35-.22-.61v-2.87c0-.41,.13-.75,.39-1.05,2.03-2.28,4.14-4.75,6.35-7.4,2.21-2.65,3.63-4.35,4.25-5.08,.07-.07,.64-.75,1.71-2.04,3.42-4.09,5.14-7.25,5.14-9.5,0-1.73-.58-3.12-1.74-4.17-1.16-1.05-2.7-1.57-4.61-1.57s-3.44,.53-4.58,1.6c-1.14,1.07-1.7,2.47-1.66,4.2v1.38c0,.26-.07,.46-.22,.61s-.35,.22-.61,.22h-3.7c-.26,0-.46-.07-.61-.22-.15-.15-.22-.35-.22-.61v-2.1c.07-1.92,.62-3.61,1.63-5.08,1.01-1.47,2.38-2.61,4.12-3.4s3.68-1.19,5.86-1.19c2.36,0,4.42,.44,6.19,1.33s3.13,2.1,4.09,3.65c.96,1.55,1.44,3.3,1.44,5.25,0,3.06-1.66,6.67-4.97,10.83-2.1,2.69-5.78,7.07-11.05,13.15-.07,.07-.09,.15-.05,.22,.04,.07,.11,.11,.22,.11h16.08c.26,0,.46,.07,.61,.22,.15,.15,.22,.35,.22,.61v2.93c0,.26-.07,.46-.22,.61-.15,.15-.35,.22-.61,.22h-22.6c-.26,0-.46-.07-.61-.22Z"/><path class="cls-2" d="M704.27,645.49c0,1.77-.29,3.57-.88,5.41-.81,2.25-2.15,4-4,5.25-1.86,1.25-4.13,1.88-6.82,1.88s-4.94-.69-6.88-2.07-3.29-3.23-4.06-5.55c-.41-1.25-.65-2.62-.72-4.09,0-.55,.28-.83,.83-.83h3.7c.55,0,.83,.28,.83,.83,.18,1.36,.33,2.25,.44,2.65,.37,1.36,1.07,2.44,2.1,3.23,1.03,.79,2.28,1.19,3.76,1.19s2.57-.31,3.51-.94c.94-.63,1.63-1.55,2.07-2.76,.52-1.33,.77-2.76,.77-4.31,0-1.99-.31-3.66-.94-5.03-.96-2.36-2.78-3.54-5.47-3.54-.63,0-1.27,.17-1.93,.5-.11,.07-.28,.11-.5,.11s-.44-.11-.66-.33l-1.77-2.16c-.15-.18-.22-.37-.22-.55,0-.15,.09-.35,.28-.61l9.28-9.89c.18-.22,.15-.33-.11-.33h-14.64c-.26,0-.46-.07-.61-.22-.15-.15-.22-.35-.22-.61v-2.98c0-.26,.07-.46,.22-.61s.35-.22,.61-.22h20.88c.26,0,.46,.07,.61,.22,.15,.15,.22,.35,.22,.61v3.2c0,.44-.13,.79-.39,1.05l-8.45,9.23c-.07,.07-.09,.15-.05,.22,.04,.07,.13,.13,.28,.17,3.76,.3,6.37,2.17,7.84,5.64,.74,1.77,1.1,3.85,1.1,6.24Z"/></g></svg>